<?xml version="1.0" encoding="utf-8"?>
<!-- Generator: Adobe Illustrator 23.0.6, SVG Export Plug-In . SVG Version: 6.00 Build 0)  -->
<svg version="1.1" id="Layer_1" xmlns="http://www.w3.org/2000/svg" xmlns:xlink="http://www.w3.org/1999/xlink" x="0px" y="0px"
	 viewBox="0 0 432 432" style="enable-background:new 0 0 432 432;" xml:space="preserve">
<style type="text/css">
	.st0{fill:#F26522;}
	.st1{fill:#F1F2F2;}
	.st2{fill:#00AEEF;}
</style>
<rect x="-0.28" y="-0.28" class="st0" width="432" height="432"/>
<path class="st1" d="M296.42,205.98v-0.63c23.5-9.1,34.47-26.34,34.47-44.81c0-19.43-10.35-33.83-25.07-41.68
	c-15.36-9.08-33.22-11.9-62.35-11.9c-24.13,0-45.9,0.57-63.73,1.03l0,0.19l-4.29,0.05v-0.16h-85.6v40.06h54.52l3.06,94.51
	c1.05,32.78-12.53,42.4-34.76,43.14c-10.41,0.34-19.84-0.91-27.21-2.88l-4.66,38.97c10.52,2.82,26.57,4.16,39.07,3.74
	c26.58-0.89,47.78-7.35,61.73-21.86l0.14,15.01c10.65,1.57,28.19,3.12,51.69,3.12c41.97,0,67.67-6.87,83.03-19.1
	c13.17-10.35,21.92-25.39,21.92-44.82C338.4,230.73,320.55,212.25,296.42,205.98z M220.39,140.2c3.76-0.93,9.71-1.57,20.36-1.57
	c21.61,0,33.83,8.47,33.83,24.43c0,15.67-13.15,26.01-38.53,26.01h-15.67V140.2z M238.87,283.7c-8.14,0-13.78,0-18.49-0.95v-59.53
	h16.29c23.81,0,42.92,8.46,42.92,29.76C279.6,275.25,260.49,283.7,238.87,283.7z"/>
<path class="st2" d="M432.13,325.16H266.38v0.1H160.77v-21.22l38.27-46.29c6.96-7.72,12.43-13.73,19.4-20.72v-0.48h-53.44v-29.16
	h99.4v22.17l-36.53,44.6c-6.69,7.48-12.91,14.95-19.87,21.47v0.46h58.39v0.01h165.75V325.16z"/>
</svg>
